# xmcd CD database file
#
# Track frame offsets:
#	150
#	13090
#	28927
#	44521
#	63424
#	77405
#	97021
#	112108
#	130523
#	148179
#	161682
#	182525
#
# Disc length: 2668 seconds
#
# Revision: 2
# Processed by: cddbd v1.4PL0 Copyright (c) Steve Scherf et al.
# Submitted via: CDex 1.40Release
#
DISCID=a20a6a0c
DTITLE=Joseph LeBlanc - Came Undone
DYEAR=2002
DGENRE=Country
TTITLE0=A Better Road
TTITLE1=Over The Edge
TTITLE2=Still Dreaming Of You
TTITLE3=I Know You
TTITLE4=It's Over (For Now)
TTITLE5=How Angels Say Good-bye
TTITLE6=Gone (That's Me)
TTITLE7=Amanda
TTITLE8=When You Gave Up On Me
TTITLE9=Running Wild
TTITLE10=Love
TTITLE11=This Day
EXTD=YEAR: 2002 ID3G: 2
EXTT0=
EXTT1=
EXTT2=
EXTT3=
EXTT4=
EXTT5=
EXTT6=
EXTT7=
EXTT8=
EXTT9=
EXTT10=
EXTT11=
PLAYORDER=
